<?xml version="1.0" encoding="UTF-8"?>
<svg version="1.1" viewBox="0 0 288 288" xmlns="http://www.w3.org/2000/svg">
<g>
<svg width="288" height="288" enable-background="new 0 0 566.9 283.5" viewBox="0 0 566.9 283.5" xmlns="http://www.w3.org/2000/svg">
<path class="color000 svgShape" d="m154.2 157.2-0.6 2.1h-12.8v-7.1h-125.8l-0.1 7 18.6 39.8 8 0.7 1.1 11.3c0.2 1.7 0.9 3 1.6 3l5.2 0.3v-0.9h0.1v0.9c0.9 0 1.6-1.3 1.7-3.3l1.3-10.2 7.3 0.7c0.5 0.8 1 1.8 1.2 2.6v0.1c0 0.1 0.2 0.7 0.3 1.3 0 0.3 0 0.5-0.1 0.8-0.1 0.6-0.3 1.2-0.6 1.6-0.1 0.2-0.2 0.4-0.3 0.5l-0.1 0.2v0.1 0.1h0.1c0.1 0.2 0.9 1.5 1.2 2.5 0.1 0.2 0.1 0.5 0.2 0.8 0 0.4 0 0.7-0.1 0.8 0 0.1 0 0.2-0.1 0.3v0.1 0.1c0 0.6-0.2 1.2-0.6 2-0.2 0.3-0.3 0.6-0.4 0.8-0.1 0.3-0.2 0.5-0.2 0.7s0.1 0.4 0.2 0.5c0.2 0.1 0.3 0.1 0.6 0.2 0.4 0 0.8-0.3 1.4-0.5 0.8-0.5 1.7-0.9 2.5-1.7 0.6-0.6 1.1-1.2 1.3-1.8 0 0 0.1 0 0.1-0.1 0.2-0.2 0.3-0.4 0.3-0.6s-0.1-0.4-0.2-0.7v-0.9l12.6-2.5v-0.1c1-0.1 7.3-0.5 13.6-1l6.8 7.1h349.5l2 5.6c0.3 0.8 1.6 1.5 2.8 1.5l9.3 0.1v-0.4h0.1v0.4c1.6 0 2.8-0.6 3.1-1.6l1.8-5.6h64l3.5-0.7 2.6-0.9 1.1-0.5 1.1-0.7c0.6-0.6 0.9-1.2 1.1-1.7l0.2-0.5c0.2-0.5 0.3-1 0.3-1.6 0.1-0.8 0-2.1-0.1-3.5l-0.9-4.9-1.4-5.7v-1.8l0.3-1.3 0.9-2.5 3.1-5 18.5-21.1-6.5-6-66.3-1.2-1.9-3.1h4.9v-0.2h17.2v-1.8h-17.1v-0.2h-6.3l-3.4-5.5h-11.7l-2.4 10.5-44.6-0.8-3.7-24.9h-0.9l3.7 24.9-6.7-0.1-2.4-9.4h2l-1.5-5.9h-2.1l-1.8-6.9h2.5l-1.5-6.1h-0.8v-2.1h-5.9l-0.1 2.1h-0.3l-0.6-3.9h-4v-0.4h-2.3v-3.4h1.6v2.4l5.1-4-5-4.3v2.4h-3.6v2.7h-0.7l-0.4 0.1-0.1 4.5h-2.7l-1.2 4h-3.8l-3.5-13.7h4.6l1.2-3.2h-2.2v-0.3h1.7v-3.2l-0.3-0.5-0.5-0.5-0.4-0.2-0.7-0.2h-0.9l-0.7 0.2-0.6 0.4-0.6 0.6v3.4h1.7v0.3h-3l-0.3-1.3 2.7-7.9h4.1l1.4-3.4h-2.3v-1.5h3.6v-1.2h-10.1v1.2h3.6v1.6h-6.4l-1.7-3.3h-1.1v-1.7c0.2-0.1 0.5-0.2 0.7-0.3l0.5-0.2-2.7-7.7-6.1 2 0.2 0.5c1.6 5.5 2.3 6.8 2.7 7.1v0.2h-2-1.2l-1.5 4.9-8.8-0.2 0.5 1.3-5.2-2.5-0.3 0.6 5.9 2.9 4.6 11.4-7.3 27.4h-3.3l-5.6-62.8-0.9 0.1 5.6 62.6h-12.4v-0.7c0.4-0.3 0.6-0.8 0.6-1.2v-0.4-3-0.2-10.4-0.2c-0.2-0.5-0.8-0.9-1.9-1.1h-0.1l-0.6 0.1-0.4 0.2-0.6 0.4-0.4 0.5v10.5 0.2 3 0.4c0 0.5 0.3 1 0.7 1.3v0.6h-2.1v-0.7l0.2-0.1 0.4-0.5v-10.5-0.2-3-0.4c0-1-0.9-1.7-2-1.7s-2 0.8-2 1.7v0.4 3 0.2 10.4 0.2c0.1 0.3 0.3 0.5 0.6 0.6v0.6h-37.1-0.7l-5.2-19.9 7.1-1.1 0.1-2.8h-1.2v-0.5h2v-3.7l-0.4-0.6-0.5-0.5-0.5-0.3-0.8-0.2h-1l-0.8 0.3-0.7 0.4-0.7 0.7-0.1 4h2v0.5h-5.4l-2.1-8h-5.2v-23h6v-1.8h-1v-1.8h2.1v-1.2h-5v1.2h2.1v1.8h-4.4v-4.5h0.4v-4.2h-4v4.2h0.6v29.3h-7.5v-1.7h3.6v-1.2h-8.3l-2.1-28.3h-0.9l2.1 28.3h-0.9v1.2h1l0.8 11.5-8-0.1v-4.5l-0.4-0.9-0.7-0.8-0.6-0.5-0.9-0.3h-1.3l-1 0.5-0.9 0.7-0.8 1-0.1 4.8h-4l-1.6-18.2-0.9-0.6 1.7 18.7h-3.1l-0.8-4.9h-1v-0.8h0.7v-4.4h-4.3v4.4h0.7v0.8h-0.8l-1 4.9h-3.6l-0.1-1.3h0.3v-1.2h-0.4l-1.7-16h-0.9l1.7 16h-8.8v1.2h3.6v1.2h-1.3l-3.6 12.9-24.9-0.1 0.7-9.6-8.8-0.1-1.9-21.2-0.9-0.6 1.9 21.8-3.2 4.5h-3.5v0.5h-9.5l-2.1-0.5v1.9l2.1-0.6h9.6v0.4h3.4l1.8 3.4h-0.3-3.2-6.8c-4.5 0-9.1 0-13.9 0.2h-0.5" fill="#adadad"/>
</svg>
</g>
</svg>
