<svg width="496" height="540" xmlns="http://www.w3.org/2000/svg" xmlns:undefined="http://www.inkscape.org/namespaces/inkscape" version="1.1">

 <metadata>image/svg+xmlOpenclipartCurly Braces2010-04-22T06:54:35These are some quick sketches and doodles I made in my notebook on a flight. These are mostly shit, but hey, lets see if useful!https://openclipart.org/detail/50131/curly-braces-by-rejonrejonblackbwdrawingsfastrapidrejonsketchsketchbookuncheckedwhite</metadata>
 <g>
  <title>Layer 1</title>
  <path stroke="null" fill="#000000" d="m488.31607,534.72267c-0.07137,-1.50751 0.31735,-2.35217 0.86393,-1.87688c0.54657,0.47518 0.60499,1.7086 0.12978,2.74093c-0.52508,1.14084 -0.91485,0.80194 -0.99377,-0.86399l0.00006,0l0,-0.00005zm55.31589,-23.92018c-3.49109,-1.69853 -3.70782,-8.80712 -0.34246,-11.23509c2.08546,-1.5048 2.46736,-1.20538 2.46736,1.93428c0,3.27274 0.5379,3.62912 4.52342,2.99671c2.48791,-0.39475 8.96451,-1.30165 14.3926,-2.01539c5.42808,-0.7137 11.34966,-1.50079 13.15948,-1.7491c1.80932,-0.24832 3.65987,-0.80358 4.11213,-1.23386c0.45234,-0.43032 4.924,-2.50334 9.93718,-4.60687c10.63483,-4.4622 22.62459,-14.00298 26.50953,-21.09381c7.58616,-13.84813 8.21704,-16.36912 7.53285,-30.11004c-0.79953,-16.05724 -3.66497,-25.96578 -11.1358,-38.50468c-18.85797,-31.65209 -18.93894,-46.39469 -0.44587,-81.42976c3.74307,-7.09137 27.46862,-27.16455 29.75674,-25.17635c0.59281,0.51536 0.00872,1.51054 -1.29427,2.21161c-3.67544,1.97489 -0.72994,3.30035 3.23463,1.45563c1.934,-0.8999 3.30376,-2.72739 3.04393,-4.06109c-0.59952,-3.07663 8.50888,-13.12475 11.89721,-13.12475c2.49115,-0.00003 6.49728,-2.62105 6.49728,-4.25103c0,-1.54833 -10.71666,-5.53611 -25.49563,-9.48707c-29.74304,-7.95152 -42.89878,-15.10537 -46.83105,-25.46331c-2.3352,-6.15174 0.86596,-23.34516 7.92982,-42.58938c12.96019,-35.30904 19.01865,-71.06749 15.1935,-89.67605c-2.9266,-14.23689 -9.43733,-22.41387 -22.29202,-27.99622c-12.67121,-5.502 -30.99359,-6.93457 -34.55344,-2.70173c-1.38732,1.64947 -1.67156,3.26072 -0.74629,4.23002c2.03601,2.13277 0.17788,3.44319 -4.91927,3.4695c-2.33707,0.01151 -5.22231,0.55836 -6.41171,1.21404c-2.98962,1.64817 -10.17409,0.26082 -10.17409,-1.96471c0,-1.00396 -1.11029,-2.1958 -2.46736,-2.64845c-1.35705,-0.45272 -2.46736,-1.4317 -2.46736,-2.17544c0,-1.65965 15.79636,-10.26817 16.96969,-9.24808c0.46302,0.40256 2.37157,0.02015 4.2413,-0.84982c1.86973,-0.86996 8.4481,-1.62283 14.61804,-1.67308c8.87458,-0.07219 14.12355,0.87888 25.11573,4.55132c7.64296,2.55348 15.51859,5.66736 17.5003,6.91984c5.20288,3.28736 13.5892,19.93403 15.546,30.85616c3.10222,17.32315 -4.81078,58.38889 -18.32985,95.12087c-5.22343,14.19357 -7.24438,27.51541 -5.05055,33.29485c1.77046,4.66383 3.68515,5.90256 20.24679,13.09876c10.06049,4.37134 19.47204,7.94795 20.91317,7.94795c4.06406,0 28.51739,8.51192 31.74343,11.04883c5.93989,4.67261 3.07557,8.56292 -12.74719,17.31341c-12.52548,6.92677 -13.83582,7.76753 -19.47578,12.49017c-2.88101,2.41248 -6.34121,4.98654 -7.68942,5.7202c-6.11165,3.32548 -16.5711,17.91225 -21.43506,29.89562c-4.0151,9.88991 -5.22605,15.34145 -5.39159,24.27321c-0.20237,10.91997 0.19869,12.29741 7.72504,26.53322c14.34775,27.13856 16.28587,33.10642 16.48267,50.76636c0.24642,22.01644 -3.63371,32.52816 -16.60847,44.99234c-6.94706,6.67413 -12.2588,10.21207 -19.78842,13.17998c-17.11293,6.74625 -49.45796,12.34181 -55.19756,9.54934l0.00069,0.00093zm43.55519,-10.78211c-1.18739,-0.4131 -2.60611,-0.36231 -3.15267,0.11284c-0.54658,0.47518 0.42493,0.81317 2.15883,0.75108c1.91619,-0.06866 2.30593,-0.40747 0.99378,-0.86397l0,0.00005l0.00006,0zm-304.61731,-15.46381c-23.68831,-4.55619 -36.92376,-12.44685 -49.97737,-29.79383c-11.70353,-15.5537 -11.79881,-15.73454 -15.15489,-28.86687c-2.37618,-9.29605 -2.95437,-18.83597 -3.11867,-51.45292c-0.19816,-39.3331 -1.43502,-55.75745 -4.31529,-57.30491c-0.79895,-0.42928 -1.47725,-1.86876 -1.50739,-3.19867c-0.06887,-3.04945 -4.3615,-7.55518 -10.56308,-11.08781c-4.79421,-2.73107 -9.32859,-2.93639 -36.93248,-1.67265c-4.11201,0.18827 -7.51653,-0.34543 -7.8648,-1.23299c-0.66984,-1.70665 20.24554,-22.03052 22.67192,-22.03052c1.50988,0 3.2923,-1.46343 12.18258,-10.00297c2.71398,-2.60697 3.93551,-4.24096 2.71448,-3.63118c-1.80658,0.9022 -1.86313,0.52872 -0.30362,-2.00466c1.05412,-1.71239 2.97841,-3.46777 4.2763,-3.90071c1.29789,-0.43298 2.35974,-1.57443 2.35974,-2.53659c0,-0.96219 2.93332,-4.59355 6.51858,-8.06977s7.47007,-7.92921 8.63294,-9.89554c1.16289,-1.96633 2.55903,-3.89692 3.10247,-4.29013c1.94496,-1.40745 9.82408,-20.11162 10.98869,-26.0849c1.64279,-8.42691 1.05866,-19.95135 -1.3304,-26.24409c-1.10228,-2.90369 -1.94147,-11.92381 -1.86487,-20.0434c0.15692,-16.63768 4.20842,-29.40182 14.7015,-46.32105c8.92478,-14.38958 31.52421,-40.35427 35.87748,-41.21843c1.2802,-0.2543 2.3276,-1.09665 2.3276,-1.8719c0,-0.77528 0.73174,-1.01643 1.6261,-0.53591c0.93242,0.50101 1.20817,-0.07311 0.64645,-1.34561c-0.68881,-1.56057 0.02043,-2.2193 2.38901,-2.2193c4.26908,0 6.04389,2.40599 3.6357,4.92871c-1.02031,1.06884 -1.26911,2.22222 -0.55284,2.56312c0.71628,0.34084 0.31119,0.40165 -0.90018,0.13515c-2.38727,-0.52529 -13.87319,9.84345 -19.18058,17.31449c-4.63116,6.51938 -12.94275,17.10874 -14.09739,17.9599c-0.53328,0.39327 -2.01621,2.80644 -3.29541,5.36274c-1.2792,2.55619 -2.88537,4.6477 -3.56919,4.6477c-0.68384,0 -1.24333,1.4656 -1.24333,3.25693s-1.00356,4.52631 -2.23007,6.07767c-3.15416,3.98951 -7.33593,15.85691 -8.55298,24.27104c-0.68516,4.73726 0.20018,13.18323 2.62343,25.02582c3.25493,15.9078 3.43193,18.89877 1.60729,27.17105c-2.79644,12.6786 -10.1706,28.44346 -17.91009,38.29027c-7.1608,9.11033 -19.91422,21.54105 -20.01387,19.50736c-0.03536,-0.72076 -1.04856,0.62009 -2.2515,2.97971c-1.2029,2.35964 -6.72535,8.5717 -12.27213,13.80481c-5.54679,5.23301 -10.08503,9.89857 -10.08503,10.36779c0,0.4693 4.83544,0.85328 10.74543,0.85328c15.75401,0 27.21079,5.2825 32.56426,15.01549c6.13395,11.15171 7.57383,22.92608 7.60696,62.2072c0.04635,55.0319 3.07955,67.17013 21.73027,86.97096c15.63941,16.60303 39.02505,23.54875 69.71845,20.70722c16.71185,-1.54725 23.76553,-0.56877 23.76553,3.29656c0,2.83243 -3.43454,4.12715 -11.51408,4.34026c-4.07103,0.10742 -13.32389,0.57021 -20.56067,1.02847c-8.73583,0.55313 -16.75296,0.14201 -23.85023,-1.22324l-0.00075,-0.00316zm5.8593,-414.19848c-4.4107,-3.73222 -1.2508,-6.13571 3.56583,-2.71212c2.79033,1.98322 3.18393,2.94246 1.6449,4.00825c-1.39492,0.96597 -3.01304,0.5635 -5.21073,-1.29612z" id="path3239"/>
 </g>
</svg>