<svg id="SvgjsSvg1001" width="288" height="288" xmlns="http://www.w3.org/2000/svg" version="1.1" xmlns:xlink="http://www.w3.org/1999/xlink" xmlns:svgjs="http://svgjs.com/svgjs"><defs id="SvgjsDefs1002"></defs><g id="SvgjsG1008" transform="matrix(1,0,0,1,0,0)"><svg xmlns="http://www.w3.org/2000/svg" enable-background="new 0 0 566.9 283.5" viewBox="0 0 566.9 283.5" width="288" height="288"><path d="M154.2,157.2l-0.6,2.1l-12.8,0v-7.1l-125.8,0l-0.1,7h0l0,0v0l0,0L33.5,199l8,0.7l1.1,11.3c0.2,1.7,0.9,3,1.6,3l5.2,0.3v-0.9	l0.1,0v0.9c0.9,0,1.6-1.3,1.7-3.3l1.3-10.2l7.3,0.7c0,0,0,0,0,0c0.5,0.8,1,1.8,1.2,2.6l0,0.1c0,0.1,0.2,0.7,0.3,1.3
	c0,0.3,0,0.5-0.1,0.8c-0.1,0.6-0.3,1.2-0.6,1.6c-0.1,0.2-0.2,0.4-0.3,0.5l-0.1,0.2l0,0.1l0,0.1l0.1,0c0.1,0.2,0.9,1.5,1.2,2.5
	c0.1,0.2,0.1,0.5,0.2,0.8c0,0.4,0,0.7-0.1,0.8c0,0.1,0,0.2-0.1,0.3l0,0.1l0,0.1c0,0.6-0.2,1.2-0.6,2c-0.2,0.3-0.3,0.6-0.4,0.8
	c-0.1,0.3-0.2,0.5-0.2,0.7c0,0.2,0.1,0.4,0.2,0.5c0.2,0.1,0.3,0.1,0.6,0.2c0.4,0,0.8-0.3,1.4-0.5c0.8-0.5,1.7-0.9,2.5-1.7
	c0.6-0.6,1.1-1.2,1.3-1.8c0,0,0.1,0,0.1-0.1c0.2-0.2,0.3-0.4,0.3-0.6c0-0.2-0.1-0.4-0.2-0.7c0-0.3,0-0.6,0-0.9l12.6-2.5l0-0.1
	c1-0.1,7.3-0.5,13.6-1l6.8,7.1H449l2,5.6c0.3,0.8,1.6,1.5,2.8,1.5l9.3,0.1v-0.4l0.1,0v0v0.4c1.6,0,2.8-0.6,3.1-1.6l1.8-5.6h64
	l3.5-0.7l2.6-0.9l1.1-0.5l1.1-0.7c0.6-0.6,0.9-1.2,1.1-1.7l0.2-0.5c0.2-0.5,0.3-1,0.3-1.6c0.1-0.8,0-2.1-0.1-3.5l-0.9-4.9l-1.4-5.7
	v-1.8l0.3-1.3l0.9-2.5l3.1-5l18.5-21.1l-6.5-6l-66.3-1.2l-1.9-3.1h4.9l0-0.2h17.2v-1.8h-17.1l0-0.2l-6.3,0l-3.4-5.5h-11.7l-2.4,10.5
	l-44.6-0.8l-3.7-24.9l-0.9,0l3.7,24.9l-6.7-0.1l-2.4-9.4l2,0l-1.5-5.9l-2.1,0l-1.8-6.9h2.5l-1.5-6.1l-0.8,0v-2.1h-5.9l-0.1,2.1
	l-0.3,0l-0.6-3.9h-4c0-0.2,0-0.4,0-0.4l-2.3,0V118h1.6l0,2.4l5.1-4l-5-4.3l0,2.4h-2.8H396v0.9v1.8c-0.6,0-0.6,0-0.7,0l-0.4,0.1
	l-0.1,4.5h-2.7l-1.2,4h-3.8l-3.5-13.7l4.6,0l1.2-3.2l-2.2,0v-0.3h1.7l0-3.2l-0.3-0.5l-0.5-0.5l-0.4-0.2l-0.7-0.2l-0.9,0l-0.7,0.2
	l-0.6,0.4l-0.6,0.6l0,3.4h1.7v0.3l-3,0l-0.3-1.3l2.7-7.9l4.1,0l1.4-3.4l-2.3,0v-1.5h3.6v-1.2h-10.1v1.2h3.6v1.6l-6.4,0l-1.7-3.3
	l-1.1,0v-1.7c0.2-0.1,0.5-0.2,0.7-0.3l0.5-0.2l-2.7-7.7l-6.1,2l0.2,0.5c1.6,5.5,2.3,6.8,2.7,7.1l0,0.2l-2,0l-1.2,0l-1.5,4.9
	l-8.8-0.2l0.5,1.3l-5.2-2.5l-0.3,0.6l5.9,2.9l4.6,11.4l-7.3,27.4l-3.3,0L347.5,76l-0.9,0.1l5.6,62.6l-12.4,0V138
	c0.4-0.3,0.6-0.8,0.6-1.2c0-0.1,0-0.3,0-0.4l0-3c0-0.1,0-0.2,0-0.2h0l0-10.4l0-0.2c-0.2-0.5-0.8-0.9-1.9-1.1l-0.1,0l-0.6,0.1
	l-0.4,0.2l-0.6,0.4l-0.4,0.5l0,10.5h0c0,0.1,0,0.1,0,0.2l0,3c0,0.1,0,0.2,0,0.4c0,0.5,0.3,1,0.7,1.3v0.6l-2.1,0V138l0.2-0.1l0.4-0.5
	l0-10.5h0c0-0.1,0-0.1,0-0.2l0-3c0-0.1,0-0.2,0-0.4c0-1-0.9-1.7-2-1.7s-2,0.8-2,1.7c0,0.1,0,0.3,0,0.4l0,3c0,0.1,0,0.2,0,0.2h0
	l0,10.4l0,0.2c0.1,0.3,0.3,0.5,0.6,0.6v0.6l-37.1,0v0h-0.7l-5.2-19.9l7.1-1.1l0.1-2.8l-1.2,0v-0.5h2l0-3.7l-0.4-0.6l-0.5-0.5
	l-0.5-0.3l-0.8-0.2l-1,0l-0.8,0.3l-0.7,0.4l-0.7,0.7l-0.1,4h2v0.5l-5.4,0l-2.1-8h-5.2V84h6v-1.8H286v-1.8h2.1v-1.2h-5v1.2h2.1v1.8
	h-4.4v-4.5h0.4v-0.2v-1v-1.8v-1.2H280h-1.6h-1.2h0v1.2h0v1.8h0v1.2h0.6v29.3h-7.5v-1.7h3.6v-1.2h-8.3l-2.1-28.3l-0.9,0l2.1,28.3
	h-0.9v1.2h1l0.8,11.5l-8-0.1l0-4.5l-0.4-0.9l-0.7-0.8l-0.6-0.5l-0.9-0.3l-1.3,0l-1,0.5l-0.9,0.7l-0.8,1l-0.1,4.8l-4,0l-1.6-18.2
	l-0.9-0.6l1.7,18.7l-3.1,0l-0.8-4.9h-1v-0.8h0.7v-4.4h-4.3v4.4h0.7v0.8h-0.8l-1,4.9l-3.6,0l-0.1-1.3h0.3v-1.2h-0.4l-1.7-16l-0.9,0
	l1.7,16H223v1.2h3.6v1.2l-1.3,0l-3.6,12.9l-24.9-0.1l0.7-9.6l-8.8-0.1l-1.9-21.2l-0.9-0.6l1.9,21.8l0,0l-3.2,4.5h-3.5l0,0.5h-9.5
	l-2.1-0.5v1.9l2.1-0.6h9.6l0,0.4l3.4,0l1.8,3.4l-0.3,0l-3.2,0c-2.3,0-4.6,0-6.8,0c-4.5,0-9.1,0-13.9,0.2l-0.5,0" fill="#adadad" class="color000 svgShape"></path></svg></g></svg>