<?xml version="1.0" encoding="UTF-8" standalone="no"?>
<!-- Created with Inkscape (http://www.inkscape.org/) -->

<svg
   xmlns:dc="http://purl.org/dc/elements/1.1/"
   xmlns:cc="http://creativecommons.org/ns#"
   xmlns:rdf="http://www.w3.org/1999/02/22-rdf-syntax-ns#"
   xmlns:svg="http://www.w3.org/2000/svg"
   xmlns="http://www.w3.org/2000/svg"
   xmlns:sodipodi="http://sodipodi.sourceforge.net/DTD/sodipodi-0.dtd"
   xmlns:inkscape="http://www.inkscape.org/namespaces/inkscape"
   width="177.44727mm"
   height="50.094803mm"
   viewBox="0 0 177.44727 50.094803"
   version="1.1"
   id="svg8"
   inkscape:version="0.92.1 r15371"
   sodipodi:docname="naval_group.svg">
  <defs
     id="defs2" />
  <sodipodi:namedview
     id="base"
     pagecolor="#ffffff"
     bordercolor="#666666"
     borderopacity="1.0"
     inkscape:pageopacity="0.0"
     inkscape:pageshadow="2"
     inkscape:zoom="0.49497475"
     inkscape:cx="142.94501"
     inkscape:cy="-29.785648"
     inkscape:document-units="mm"
     inkscape:current-layer="layer1"
     showgrid="false"
     fit-margin-top="0"
     fit-margin-left="0"
     fit-margin-right="0"
     fit-margin-bottom="0"
     inkscape:window-width="1280"
     inkscape:window-height="962"
     inkscape:window-x="-8"
     inkscape:window-y="-8"
     inkscape:window-maximized="1" />
  <metadata
     id="metadata5">
    <rdf:RDF>
      <cc:Work
         rdf:about="">
        <dc:format>image/svg+xml</dc:format>
        <dc:type
           rdf:resource="http://purl.org/dc/dcmitype/StillImage" />
        <dc:title></dc:title>
      </cc:Work>
    </rdf:RDF>
  </metadata>
  <g
     inkscape:label="Calque 1"
     inkscape:groupmode="layer"
     id="layer1"
     transform="translate(-18.652715,-48.094622)">
    <path
       inkscape:connector-curvature="0"
       id="path4502"
       d="m 121.47779,59.72955 c -0.291,-0.456142 -1.97656,-3.210599 -3.7457,-6.121016 l -3.2166,-5.291666 7.2935,-0.09551 c 4.01143,-0.05253 7.3711,-0.01791 7.46594,0.07693 0.15347,0.153467 -4.44806,8.017528 -6.48239,11.078485 l -0.78565,1.182127 z"
       style="fill:#e40828;stroke-width:0.35277778"
       sodipodi:nodetypes="cccscscc" />
    <path
       inkscape:connector-curvature="0"
       id="path4500"
       d="m 76.044035,97.699553 c -5.20882,-1.94126 -5.20697,-8.81631 0.003,-10.59148 3.07992,-1.04943 6.02322,-0.5256 7.89444,1.40502 l 1.12548,1.1612 -1.72158,0.50597 c -1.45895,0.42879 -1.82775,0.43246 -2.41744,0.0241 -0.93265,-0.64591 -3.02023,-0.61071 -3.98815,0.0673 -0.58482,0.40963 -0.78405,0.90266 -0.78405,1.94028 0,1.95959 0.9317,2.80376 3.0868,2.79682 1.4686,-0.005 3.32924,-0.58958 2.38125,-0.74849 -0.19402,-0.0325 -0.51152,-0.096 -0.70555,-0.14109 -0.19403,-0.0451 -0.71143,-0.10028 -1.14977,-0.12266 l -0.79697,-0.0407 0.79699,-1.23036 c 0.77999,-1.2041 0.84779,-1.23045 3.17824,-1.23472 l 2.38125,-0.004 v 2.48928 2.48928 l -1.67001,0.73873 c -2.11326,0.9348 -5.79311,1.17451 -7.61376,0.49598 z m 11.83267,-5.24313 0.0969,-5.73263 2.82222,-0.11117 c 4.16482,-0.16407 6.35315,0.18734 7.57637,1.21661 1.856385,1.56204 1.750545,4.55431 -0.21579,6.10103 -1.05675,0.83124 -1.04626,1.11523 0.0801,2.16884 0.502887,0.47038 1.064097,1.13305 1.247137,1.4726 0.30118,0.55873 0.11537,0.61736 -1.956517,0.61736 h -2.28931 l -1.25088,-1.63823 c -0.93318,-1.22215 -1.25088,-1.98374 -1.25088,-2.99861 0,-1.3169 0.0391,-1.36038 1.22231,-1.36038 0.84595,0 1.33437,-0.20938 1.58624,-0.68 0.7523,-1.40569 -0.44533,-2.33669 -2.67773,-2.08157 l -1.01276,0.11574 -0.0991,4.32152 -0.0991,4.32153 h -1.93816 -1.93816 z m 17.383035,5.30171 c -2.76974,-0.982 -4.05694,-2.72598 -4.05694,-5.4966 0,-3.4742 2.56828,-5.54036 6.87916,-5.53423 4.28717,0.006 6.88085,2.19777 6.87786,5.81181 -0.002,2.25191 -1.0149,3.73464 -3.2684,4.78381 -1.9919,0.92738 -4.55445,1.10077 -6.43168,0.43521 z m 5.08967,-3.67359 c 0.40215,-0.51123 0.73117,-1.28357 0.73117,-1.71631 0,-0.43274 -0.32902,-1.20508 -0.73117,-1.71631 -0.97696,-1.242 -3.45635,-1.32786 -4.54676,-0.15745 -0.94167,1.01076 -0.92023,2.67273 0.0478,3.70311 1.13534,1.20851 3.50634,1.14895 4.49901,-0.11304 z m 10.01518,3.67146 c -0.61762,-0.19857 -1.57012,-0.82735 -2.11667,-1.39731 -0.97874,-1.02065 -0.99373,-1.10113 -0.99373,-5.33559 v -4.29931 l 1.85209,-0.10663 1.85208,-0.10663 v 3.5694 c 0,1.96317 0.16433,3.87647 0.36519,4.25177 0.42887,0.80135 2.50224,0.94887 3.1063,0.22102 0.21059,-0.25375 0.42846,-2.11906 0.48417,-4.14514 l 0.10128,-3.68379 1.85209,-0.10663 1.85208,-0.10663 v 4.23949 c 0,4.23264 -0.002,4.24149 -1.08736,5.47792 -1.59128,1.81237 -4.48849,2.42154 -7.26752,1.52806 z m 11.33257,-0.0234 c -0.0963,-0.25106 -0.13104,-2.83075 -0.0771,-5.73264 l 0.098,-5.27615 3.88056,0.007 c 4.24809,0.007 5.42336,0.36185 6.6371,2.00219 1.31148,1.77243 0.53123,4.44067 -1.60522,5.4894 -0.49603,0.24349 -1.63269,0.54288 -2.52591,0.66531 l -1.62403,0.22261 v -1.43563 c 0,-1.28961 0.0951,-1.44698 0.93456,-1.54726 2.31515,-0.27652 1.91886,-2.58106 -0.44384,-2.58106 h -1.37266 l -0.0991,4.32152 -0.0991,4.32153 h -1.7641 c -1.11779,0 -1.82828,-0.16724 -1.93927,-0.45647 z M 18.652805,62.558513 V 48.094622 h 4.49992 4.49993 l 8.46466,7.778037 8.46466,7.778034 0.0949,-7.778034 0.0949,-7.778037 h 4.75575 4.75575 v 14.463891 14.46389 l -4.49792,-0.009 -4.49791,-0.009 -6.87917,-6.17334 c -3.78354,-3.39534 -7.63323,-6.81919 -8.55486,-7.60855 l -1.6757,-1.4352 v 7.61758 7.61757 h -4.7625 -4.7625 z m 40.67505,14.1993 c 0.081,-0.14552 2.97426,-4.9477 6.4295,-10.67152 3.45524,-5.72382 7.30847,-12.113512 8.56274,-14.19931 l 2.28048,-3.792361 2.51153,0.0037 2.51153,0.0037 8.64306,14.168401 c 4.75368,7.79262 8.695967,14.29969 8.760637,14.46015 0.0647,0.16046 -2.263927,0.29175 -5.174697,0.29175 h -5.29229 l -0.77284,-1.25049 -0.77284,-1.25048 -5.95916,0.10396 c -3.27754,0.0572 -5.95896,0.0527 -5.95871,-0.01 2.5e-4,-0.0626 0.83389,-1.52728 1.85254,-3.25478 l 1.85208,-3.14091 2.03169,-0.008 2.03168,-0.008 -1.79433,-3.57563 -1.79433,-3.57563 -4.7451,7.98535 -4.74509,7.98539 h -5.30266 c -2.91647,0 -5.2364,-0.11907 -5.15542,-0.26459 z m 43.991605,-13.94302 c -4.753675,-7.786155 -8.695965,-14.283438 -8.760635,-14.438408 -0.0647,-0.15497 2.55857,-0.281763 5.829425,-0.281763 h 5.94703 l 5.72405,9.479354 c 3.14822,5.213647 5.72403,9.646677 5.72403,9.851177 0,0.33406 -5.04437,8.72603 -5.59449,9.30718 -0.12449,0.13151 -4.11573,-6.13138 -8.86941,-13.91754 z m 20.8799,13.83321 c 0.0686,-0.20592 3.93156,-6.7129 8.58426,-14.45996 l 8.45946,-14.085571 2.58234,0.08427 2.58234,0.08427 5.71919,9.348611 c 3.14556,5.14174 7.10295,11.6108 8.7942,14.3757 l 3.07501,5.02708 h -5.41196 -5.41196 l -0.67291,-1.24997 -0.67292,-1.24996 -5.90947,0.10344 c -3.25022,0.0569 -5.90928,-0.0357 -5.90903,-0.20573 2.4e-4,-0.17004 0.81565,-1.63847 1.812,-3.26319 l 1.81155,-2.95404 h 1.89262 c 1.04094,0 1.89261,-0.0825 1.89261,-0.18343 0,-0.44786 -3.20929,-6.5187 -3.44312,-6.51317 -0.14358,0.003 -2.32479,3.49564 -4.84715,7.76053 l -4.58612,7.75435 -5.23286,7.1e-4 c -3.53348,3.5e-4 -5.19235,-0.12101 -5.10808,-0.37382 z m 44.384,-14.08949 V 48.094622 h 4.75747 4.75748 l 0.0932,11.024301 0.0932,11.02431 8.90764,0.0943 c 4.8992,0.0518 8.90763,0.18245 8.90763,0.29026 0,0.1078 -0.83343,1.60941 -1.85208,3.33691 l -1.85208,3.14091 -11.90625,0.008 -11.90625,0.008 z"
       style="fill:#103494;fill-opacity:1;stroke-width:0.35277778" />
  </g>
</svg>
